<?xml version="1.0" standalone="no"?><!DOCTYPE svg PUBLIC "-//W3C//DTD SVG 1.1//EN" "http://www.w3.org/Graphics/SVG/1.1/DTD/svg11.dtd"><svg t="1488192016325" class="icon" style="" viewBox="0 0 1024 1024" version="1.1" xmlns="http://www.w3.org/2000/svg" p-id="4921" xmlns:xlink="http://www.w3.org/1999/xlink" width="200" height="200"><defs><style type="text/css"></style></defs><path d="M358.4 653.44l-0.64 38.4 36.48 1.28 133.12-127.36 126.08 126.72 32.64 0 0-42.24L531.2 494.72 358.4 653.44zM512 32C247.04 32 32 247.04 32 512c0 264.96 215.04 480 480 480 264.96 0 480-215.04 480-480C992 247.04 776.96 32 512 32zM512 929.92c-230.4 0-417.92-186.88-417.92-417.92C94.08 281.6 281.6 94.08 512 94.08S929.92 281.6 929.92 512C929.92 742.4 742.4 929.92 512 929.92zM336.64 428.16l366.72 0L703.36 363.52 336.64 363.52 336.64 428.16z" p-id="4922" fill="#ffffff"></path></svg>